<svg xmlns="http://www.w3.org/2000/svg" xmlns:xlink="http://www.w3.org/1999/xlink" width="800" zoomAndPan="magnify" viewBox="0 0 600 749.999995" height="1000" preserveAspectRatio="xMidYMid meet" version="1.0"><defs><clipPath id="68245742f6"><path d="M 30.585938 256 L 569.085938 256 L 569.085938 682.691406 L 30.585938 682.691406 Z M 30.585938 256 " clip-rule="nonzero"/></clipPath></defs><path fill="#2cd117" d="M 373.132812 408.925781 C 349.414062 395.242188 319.117188 403.347656 305.433594 427.066406 C 289.453125 454.722656 308.25 486.472656 262.859375 529.375 C 320.042969 536.59375 375.3125 504.304688 391.273438 476.628906 C 404.972656 452.929688 396.847656 422.609375 373.132812 408.925781 " fill-opacity="1" fill-rule="nonzero"/><path fill="#2cd117" d="M 390.539062 378.757812 C 408.96875 389.394531 421.78125 406.011719 428.132812 424.730469 C 463.273438 357.453125 506.925781 253.8125 535.023438 159.746094 C 539.867188 143.59375 519.546875 131.859375 507.96875 144.113281 C 440.558594 215.503906 372.628906 305.113281 331.929688 369.1875 C 351.324219 365.328125 372.128906 368.125 390.539062 378.757812 " fill-opacity="1" fill-rule="nonzero"/><g clip-path="url(#68245742f6)"><path fill="#2cd117" d="M 68.953125 290.328125 L 197.402344 290.328125 L 197.402344 326.398438 L 68.953125 326.398438 Z M 541.722656 256.300781 L 539.386719 256.300781 C 526.535156 291.3125 512.195312 326.824219 497.394531 360.425781 L 530.78125 360.425781 L 530.78125 644.324219 L 68.953125 644.324219 L 68.953125 360.425781 L 296.246094 360.425781 L 302.539062 350.523438 C 321.316406 320.957031 343.992188 288.667969 368.460938 256.300781 L 57.972656 256.300781 C 42.800781 256.300781 30.585938 268.578125 30.585938 283.6875 L 30.585938 655.324219 C 30.585938 670.476562 42.800781 682.691406 57.972656 682.691406 L 541.722656 682.691406 C 556.929688 682.691406 569.164062 670.476562 569.164062 655.324219 L 569.164062 283.6875 C 569.164062 268.578125 556.929688 256.300781 541.722656 256.300781 " fill-opacity="1" fill-rule="nonzero"/></g><path fill="#2cd117" d="M 326.273438 183.367188 L 336.695312 186.226562 C 348.640625 189.527344 357.980469 198.847656 361.261719 210.8125 L 364.136719 221.214844 C 366.28125 229.050781 377.378906 229.050781 379.519531 221.214844 L 382.394531 210.8125 C 385.675781 198.847656 395.015625 189.527344 406.960938 186.226562 L 417.363281 183.367188 C 425.199219 181.226562 425.199219 170.128906 417.363281 167.96875 L 406.960938 165.113281 C 395.015625 161.832031 385.675781 152.488281 382.394531 140.542969 L 379.519531 130.121094 C 377.378906 122.304688 366.28125 122.304688 364.136719 130.121094 L 361.261719 140.542969 C 357.980469 152.488281 348.640625 161.832031 336.695312 165.113281 L 326.273438 167.96875 C 318.460938 170.128906 318.460938 181.226562 326.273438 183.367188 " fill-opacity="1" fill-rule="nonzero"/><path fill="#2cd117" d="M 184.335938 140.195312 L 196.746094 143.59375 C 210.988281 147.511719 222.101562 158.644531 226.019531 172.890625 L 229.4375 185.300781 C 232.003906 194.621094 245.222656 194.621094 247.769531 185.300781 L 251.1875 172.890625 C 255.101562 158.644531 266.238281 147.511719 280.480469 143.59375 L 292.890625 140.195312 C 302.191406 137.628906 302.191406 124.40625 292.890625 121.839844 L 280.480469 118.425781 C 266.238281 114.507812 255.101562 103.390625 251.1875 89.148438 L 247.769531 76.738281 C 245.222656 67.414062 232.003906 67.414062 229.4375 76.738281 L 226.019531 89.148438 C 222.101562 103.390625 210.988281 114.507812 196.746094 118.425781 L 184.335938 121.839844 C 175.015625 124.40625 175.015625 137.628906 184.335938 140.195312 " fill-opacity="1" fill-rule="nonzero"/></svg>