<svg xmlns="http://www.w3.org/2000/svg" xmlns:xlink="http://www.w3.org/1999/xlink" width="800" zoomAndPan="magnify" viewBox="0 0 600 749.999995" height="1000" preserveAspectRatio="xMidYMid meet" version="1.0"><defs><clipPath id="75a193d92f"><path d="M 274.03125 355.261719 L 299 355.261719 L 299 395 L 274.03125 395 Z M 274.03125 355.261719 " clip-rule="nonzero"/></clipPath><clipPath id="872394a431"><path d="M 300 355.261719 L 325.78125 355.261719 L 325.78125 395 L 300 395 Z M 300 355.261719 " clip-rule="nonzero"/></clipPath></defs><g clip-path="url(#75a193d92f)"><path fill="#2cd117" d="M 287.421875 372.277344 C 284.976562 372.277344 282.722656 373.101562 280.902344 374.472656 C 281.082031 368.742188 285.464844 363.007812 294.113281 357.273438 L 292.828125 355.261719 C 280.296875 363.132812 274.03125 371.769531 274.03125 381.167969 C 274.03125 385.488281 275.195312 388.871094 277.519531 391.316406 C 279.847656 393.761719 282.789062 394.984375 286.347656 394.984375 C 289.910156 394.984375 292.78125 394.003906 294.964844 392.035156 C 297.148438 390.070312 298.238281 387.691406 298.238281 384.910156 C 298.238281 384.878906 298.234375 384.859375 298.234375 384.824219 C 298.300781 384.332031 298.347656 383.832031 298.347656 383.316406 C 298.347656 377.222656 293.453125 372.277344 287.421875 372.277344 Z M 287.421875 372.277344 " fill-opacity="1" fill-rule="nonzero"/></g><g clip-path="url(#872394a431)"><path fill="#2cd117" d="M 322.75 390.941406 C 322.890625 390.777344 323.0625 390.617188 323.191406 390.445312 C 324.800781 388.523438 325.777344 386.039062 325.777344 383.316406 C 325.777344 377.222656 320.886719 372.273438 314.851562 372.273438 C 312.089844 372.273438 309.574219 373.320312 307.648438 375.03125 C 307.648438 374.964844 307.636719 374.90625 307.636719 374.835938 C 307.636719 368.984375 312.050781 363.128906 320.882812 357.273438 L 319.597656 355.261719 C 307.066406 363.132812 300.800781 371.769531 300.800781 381.171875 C 300.800781 385.488281 301.964844 388.871094 304.292969 391.316406 C 306.617188 393.765625 309.558594 394.988281 313.117188 394.988281 C 316.679688 394.988281 319.550781 394.003906 321.734375 392.035156 C 322.042969 391.761719 322.28125 391.453125 322.546875 391.15625 C 322.617188 391.085938 322.679688 391.015625 322.75 390.941406 Z M 322.75 390.941406 " fill-opacity="1" fill-rule="nonzero"/></g></svg>