<svg xmlns="http://www.w3.org/2000/svg" xmlns:xlink="http://www.w3.org/1999/xlink" width="800" zoomAndPan="magnify" viewBox="0 0 600 749.999995" height="1000" preserveAspectRatio="xMidYMid meet" version="1.0"><defs><clipPath id="93402b64a5"><path d="M 177.347656 281.785156 L 293 281.785156 L 293 468.535156 L 177.347656 468.535156 Z M 177.347656 281.785156 " clip-rule="nonzero"/></clipPath><clipPath id="3ac409db0a"><path d="M 304 281.785156 L 422.597656 281.785156 L 422.597656 468.535156 L 304 468.535156 Z M 304 281.785156 " clip-rule="nonzero"/></clipPath></defs><g clip-path="url(#93402b64a5)"><path fill="#2cd117" d="M 240.8125 361.714844 C 229.214844 361.714844 218.539062 365.585938 209.910156 372.035156 C 210.757812 345.113281 231.53125 318.179688 272.515625 291.242188 L 266.433594 281.785156 C 207.046875 318.753906 177.351562 359.328125 177.351562 403.5 C 177.351562 423.785156 182.859375 439.679688 193.886719 451.164062 C 204.90625 462.667969 218.855469 468.40625 235.726562 468.40625 C 252.605469 468.40625 266.207031 463.789062 276.558594 454.546875 C 286.90625 445.3125 292.085938 434.144531 292.085938 421.082031 C 292.085938 420.933594 292.058594 420.824219 292.058594 420.667969 C 292.375 418.351562 292.597656 416.007812 292.597656 413.589844 C 292.597656 384.945312 269.402344 361.714844 240.8125 361.714844 Z M 240.8125 361.714844 " fill-opacity="1" fill-rule="nonzero"/></g><g clip-path="url(#3ac409db0a)"><path fill="#2cd117" d="M 408.238281 449.40625 C 408.910156 448.632812 409.722656 447.890625 410.335938 447.082031 C 417.964844 438.039062 422.597656 426.371094 422.597656 413.589844 C 422.597656 384.949219 399.410156 361.710938 370.816406 361.710938 C 357.722656 361.710938 345.800781 366.617188 336.675781 374.660156 C 336.675781 374.339844 336.625 374.070312 336.625 373.738281 C 336.625 346.246094 357.542969 318.738281 399.394531 291.234375 L 393.316406 281.785156 C 333.921875 318.753906 304.226562 359.328125 304.226562 403.507812 C 304.226562 423.792969 309.734375 439.6875 320.765625 451.167969 C 331.78125 462.675781 345.730469 468.417969 362.601562 468.417969 C 379.472656 468.417969 393.089844 463.796875 403.433594 454.546875 C 404.898438 453.257812 406.035156 451.808594 407.289062 450.425781 C 407.617188 450.097656 407.914062 449.75 408.238281 449.40625 Z M 408.238281 449.40625 " fill-opacity="1" fill-rule="nonzero"/></g></svg>