<svg xmlns="http://www.w3.org/2000/svg" xmlns:xlink="http://www.w3.org/1999/xlink" width="800" zoomAndPan="magnify" viewBox="0 0 600 749.999995" height="1000" preserveAspectRatio="xMidYMid meet" version="1.0"><defs><clipPath id="5a1d6303ef"><path d="M 133.023438 248.097656 L 290 248.097656 L 290 501.597656 L 133.023438 501.597656 Z M 133.023438 248.097656 " clip-rule="nonzero"/></clipPath><clipPath id="eb990be2c9"><path d="M 305 248.097656 L 466.773438 248.097656 L 466.773438 501.597656 L 305 501.597656 Z M 305 248.097656 " clip-rule="nonzero"/></clipPath></defs><g clip-path="url(#5a1d6303ef)"><path fill="#2cd117" d="M 219.390625 356.597656 C 203.605469 356.597656 189.078125 361.855469 177.339844 370.609375 C 178.492188 334.0625 206.761719 297.5 262.535156 260.933594 L 254.257812 248.097656 C 173.441406 298.28125 133.03125 353.359375 133.03125 413.316406 C 133.03125 440.851562 140.527344 462.429688 155.53125 478.015625 C 170.527344 493.632812 189.511719 501.421875 212.472656 501.421875 C 235.441406 501.421875 253.949219 495.160156 268.039062 482.609375 C 282.117188 470.078125 289.164062 454.917969 289.164062 437.183594 C 289.164062 436.984375 289.128906 436.835938 289.128906 436.625 C 289.558594 433.476562 289.863281 430.300781 289.863281 427.011719 C 289.863281 388.132812 258.300781 356.597656 219.390625 356.597656 Z M 219.390625 356.597656 " fill-opacity="1" fill-rule="nonzero"/></g><g clip-path="url(#eb990be2c9)"><path fill="#2cd117" d="M 447.234375 475.636719 C 448.144531 474.582031 449.25 473.578125 450.085938 472.476562 C 460.464844 460.207031 466.769531 444.363281 466.769531 427.015625 C 466.769531 388.136719 435.214844 356.589844 396.308594 356.589844 C 378.484375 356.589844 362.261719 363.253906 349.847656 374.167969 C 349.847656 373.734375 349.777344 373.367188 349.777344 372.921875 C 349.777344 335.601562 378.242188 298.257812 435.195312 260.925781 L 426.925781 248.097656 C 346.101562 298.28125 305.6875 353.359375 305.6875 413.332031 C 305.6875 440.867188 313.183594 462.441406 328.195312 478.027344 C 343.1875 493.644531 362.167969 501.441406 385.128906 501.441406 C 408.085938 501.441406 426.617188 495.167969 440.695312 482.613281 C 442.6875 480.863281 444.230469 478.894531 445.9375 477.015625 C 446.386719 476.570312 446.792969 476.101562 447.234375 475.636719 Z M 447.234375 475.636719 " fill-opacity="1" fill-rule="nonzero"/></g></svg>