<svg xmlns="http://www.w3.org/2000/svg" xmlns:xlink="http://www.w3.org/1999/xlink" width="800" zoomAndPan="magnify" viewBox="0 0 600 749.999995" height="1000" preserveAspectRatio="xMidYMid meet" version="1.0"><defs><clipPath id="d7e85521f6"><path d="M 20.769531 95.769531 L 175 95.769531 L 175 424 L 20.769531 424 Z M 20.769531 95.769531 " clip-rule="nonzero"/></clipPath><clipPath id="990c1711e5"><path d="M 184 635 L 416 635 L 416 654.519531 L 184 654.519531 Z M 184 635 " clip-rule="nonzero"/></clipPath><clipPath id="b5acd3b83d"><path d="M 20.769531 442 L 579.519531 442 L 579.519531 520 L 20.769531 520 Z M 20.769531 442 " clip-rule="nonzero"/></clipPath><clipPath id="61e642b242"><path d="M 194 95.769531 L 579.519531 95.769531 L 579.519531 327 L 194 327 Z M 194 95.769531 " clip-rule="nonzero"/></clipPath><clipPath id="f40eb40ddf"><path d="M 194 346 L 579.519531 346 L 579.519531 424 L 194 424 Z M 194 346 " clip-rule="nonzero"/></clipPath></defs><path fill="#2cd117" d="M 239.835938 538.914062 L 216.71875 615.984375 L 383.570312 615.984375 L 360.449219 538.914062 Z M 239.835938 538.914062 " fill-opacity="1" fill-rule="nonzero"/><g clip-path="url(#d7e85521f6)"><path fill="#2cd117" d="M 174.90625 95.769531 L 49.671875 95.769531 C 48.722656 95.769531 47.78125 95.816406 46.835938 95.910156 C 45.894531 96 44.960938 96.140625 44.03125 96.324219 C 43.101562 96.507812 42.1875 96.738281 41.28125 97.015625 C 40.375 97.289062 39.484375 97.605469 38.609375 97.96875 C 37.734375 98.332031 36.882812 98.734375 36.046875 99.183594 C 35.210938 99.628906 34.402344 100.113281 33.613281 100.640625 C 32.828125 101.164062 32.066406 101.730469 31.335938 102.328125 C 30.605469 102.929688 29.902344 103.566406 29.234375 104.234375 C 28.566406 104.902344 27.929688 105.605469 27.328125 106.335938 C 26.730469 107.066406 26.164062 107.828125 25.640625 108.613281 C 25.113281 109.402344 24.628906 110.210938 24.183594 111.046875 C 23.734375 111.882812 23.332031 112.734375 22.96875 113.609375 C 22.605469 114.484375 22.289062 115.375 22.015625 116.28125 C 21.738281 117.1875 21.507812 118.105469 21.324219 119.03125 C 21.140625 119.960938 21 120.894531 20.910156 121.835938 C 20.816406 122.78125 20.769531 123.722656 20.769531 124.671875 L 20.769531 423.3125 L 174.90625 423.3125 Z M 88.203125 394.410156 L 49.671875 394.410156 L 49.671875 355.878906 L 88.203125 355.878906 Z M 88.203125 317.34375 L 49.671875 317.34375 L 49.671875 278.808594 L 88.203125 278.808594 Z M 88.203125 240.273438 L 49.671875 240.273438 L 49.671875 201.738281 L 88.203125 201.738281 Z M 88.203125 163.203125 L 49.671875 163.203125 L 49.671875 124.671875 L 88.203125 124.671875 Z M 155.640625 404.046875 L 117.105469 404.046875 L 117.105469 384.777344 L 155.640625 384.777344 Z M 155.640625 365.511719 L 117.105469 365.511719 L 117.105469 346.242188 L 155.640625 346.242188 Z M 155.640625 326.976562 L 117.105469 326.976562 L 117.105469 307.710938 L 155.640625 307.710938 Z M 155.640625 288.441406 L 117.105469 288.441406 L 117.105469 269.175781 L 155.640625 269.175781 Z M 155.640625 249.90625 L 117.105469 249.90625 L 117.105469 230.640625 L 155.640625 230.640625 Z M 155.640625 211.371094 L 117.105469 211.371094 L 117.105469 192.105469 L 155.640625 192.105469 Z M 155.640625 172.839844 L 117.105469 172.839844 L 117.105469 153.570312 L 155.640625 153.570312 Z M 155.640625 134.304688 L 117.105469 134.304688 L 117.105469 115.035156 L 155.640625 115.035156 Z M 155.640625 134.304688 " fill-opacity="1" fill-rule="nonzero"/></g><g clip-path="url(#990c1711e5)"><path fill="#2cd117" d="M 184.539062 635.253906 L 415.746094 635.253906 L 415.746094 654.519531 L 184.539062 654.519531 Z M 184.539062 635.253906 " fill-opacity="1" fill-rule="nonzero"/></g><g clip-path="url(#b5acd3b83d)"><path fill="#2cd117" d="M 20.769531 490.746094 C 20.769531 491.695312 20.816406 492.636719 20.910156 493.582031 C 21 494.523438 21.140625 495.457031 21.324219 496.386719 C 21.507812 497.3125 21.738281 498.230469 22.015625 499.136719 C 22.289062 500.042969 22.605469 500.933594 22.96875 501.808594 C 23.332031 502.683594 23.734375 503.535156 24.183594 504.371094 C 24.628906 505.207031 25.113281 506.015625 25.640625 506.804688 C 26.164062 507.589844 26.730469 508.351562 27.328125 509.082031 C 27.929688 509.8125 28.566406 510.515625 29.234375 511.183594 C 29.902344 511.851562 30.605469 512.488281 31.335938 513.089844 C 32.066406 513.6875 32.828125 514.253906 33.613281 514.777344 C 34.402344 515.304688 35.210938 515.789062 36.046875 516.234375 C 36.882812 516.683594 37.734375 517.085938 38.609375 517.449219 C 39.484375 517.8125 40.375 518.128906 41.28125 518.402344 C 42.1875 518.679688 43.101562 518.910156 44.03125 519.09375 C 44.960938 519.277344 45.894531 519.417969 46.835938 519.507812 C 47.78125 519.601562 48.722656 519.648438 49.671875 519.648438 L 550.617188 519.648438 C 551.566406 519.648438 552.507812 519.601562 553.449219 519.507812 C 554.394531 519.417969 555.328125 519.277344 556.257812 519.09375 C 557.183594 518.910156 558.101562 518.679688 559.007812 518.402344 C 559.914062 518.128906 560.804688 517.8125 561.679688 517.449219 C 562.550781 517.085938 563.40625 516.683594 564.242188 516.234375 C 565.078125 515.789062 565.886719 515.304688 566.675781 514.777344 C 567.460938 514.253906 568.222656 513.6875 568.953125 513.089844 C 569.683594 512.488281 570.386719 511.851562 571.054688 511.183594 C 571.722656 510.515625 572.359375 509.8125 572.957031 509.082031 C 573.558594 508.351562 574.121094 507.589844 574.648438 506.804688 C 575.175781 506.015625 575.660156 505.207031 576.105469 504.371094 C 576.554688 503.535156 576.957031 502.683594 577.320312 501.808594 C 577.679688 500.933594 578 500.042969 578.273438 499.136719 C 578.550781 498.230469 578.777344 497.3125 578.964844 496.386719 C 579.148438 495.457031 579.289062 494.523438 579.378906 493.582031 C 579.472656 492.636719 579.519531 491.695312 579.519531 490.746094 L 579.519531 442.578125 L 20.769531 442.578125 Z M 300.144531 461.847656 C 300.773438 461.847656 301.40625 461.878906 302.03125 461.941406 C 302.660156 462 303.285156 462.09375 303.902344 462.21875 C 304.523438 462.339844 305.132812 462.492188 305.738281 462.675781 C 306.339844 462.859375 306.933594 463.070312 307.515625 463.3125 C 308.101562 463.554688 308.671875 463.824219 309.226562 464.121094 C 309.785156 464.417969 310.324219 464.742188 310.847656 465.09375 C 311.375 465.445312 311.878906 465.820312 312.367188 466.21875 C 312.855469 466.621094 313.320312 467.042969 313.769531 467.488281 C 314.214844 467.9375 314.636719 468.402344 315.039062 468.890625 C 315.4375 469.378906 315.8125 469.886719 316.164062 470.410156 C 316.515625 470.933594 316.839844 471.476562 317.136719 472.03125 C 317.433594 472.589844 317.703125 473.15625 317.945312 473.742188 C 318.1875 474.324219 318.398438 474.917969 318.582031 475.519531 C 318.765625 476.125 318.917969 476.738281 319.042969 477.355469 C 319.164062 477.972656 319.257812 478.597656 319.320312 479.226562 C 319.378906 479.855469 319.410156 480.484375 319.410156 481.113281 C 319.410156 481.746094 319.378906 482.375 319.320312 483.003906 C 319.257812 483.628906 319.164062 484.253906 319.042969 484.871094 C 318.917969 485.492188 318.765625 486.101562 318.582031 486.707031 C 318.398438 487.3125 318.1875 487.90625 317.945312 488.488281 C 317.703125 489.070312 317.433594 489.640625 317.136719 490.195312 C 316.839844 490.753906 316.515625 491.292969 316.164062 491.820312 C 315.8125 492.34375 315.4375 492.847656 315.039062 493.335938 C 314.636719 493.824219 314.214844 494.292969 313.769531 494.738281 C 313.320312 495.183594 312.855469 495.609375 312.367188 496.007812 C 311.878906 496.410156 311.375 496.785156 310.847656 497.132812 C 310.324219 497.484375 309.785156 497.808594 309.226562 498.105469 C 308.671875 498.402344 308.101562 498.671875 307.515625 498.914062 C 306.933594 499.15625 306.339844 499.367188 305.738281 499.550781 C 305.132812 499.734375 304.523438 499.886719 303.902344 500.011719 C 303.285156 500.132812 302.660156 500.226562 302.03125 500.289062 C 301.40625 500.351562 300.773438 500.382812 300.144531 500.382812 C 299.511719 500.382812 298.882812 500.351562 298.253906 500.289062 C 297.628906 500.226562 297.003906 500.132812 296.386719 500.011719 C 295.765625 499.886719 295.15625 499.734375 294.550781 499.550781 C 293.949219 499.367188 293.355469 499.15625 292.769531 498.914062 C 292.1875 498.671875 291.617188 498.402344 291.0625 498.105469 C 290.503906 497.808594 289.964844 497.484375 289.441406 497.132812 C 288.914062 496.785156 288.410156 496.410156 287.921875 496.007812 C 287.433594 495.609375 286.964844 495.183594 286.519531 494.738281 C 286.074219 494.292969 285.652344 493.824219 285.25 493.335938 C 284.851562 492.847656 284.476562 492.34375 284.125 491.820312 C 283.773438 491.292969 283.449219 490.753906 283.152344 490.195312 C 282.855469 489.640625 282.585938 489.070312 282.34375 488.488281 C 282.101562 487.90625 281.890625 487.3125 281.707031 486.707031 C 281.523438 486.101562 281.371094 485.492188 281.246094 484.871094 C 281.125 484.253906 281.03125 483.628906 280.96875 483.003906 C 280.90625 482.375 280.878906 481.746094 280.878906 481.113281 C 280.878906 480.484375 280.90625 479.855469 280.96875 479.226562 C 281.03125 478.597656 281.125 477.972656 281.246094 477.355469 C 281.371094 476.738281 281.523438 476.125 281.707031 475.519531 C 281.890625 474.917969 282.101562 474.324219 282.34375 473.742188 C 282.585938 473.15625 282.855469 472.589844 283.152344 472.03125 C 283.449219 471.476562 283.773438 470.933594 284.125 470.410156 C 284.476562 469.886719 284.851562 469.378906 285.25 468.890625 C 285.652344 468.402344 286.074219 467.9375 286.519531 467.492188 C 286.964844 467.042969 287.433594 466.621094 287.921875 466.21875 C 288.410156 465.820312 288.914062 465.445312 289.441406 465.09375 C 289.964844 464.742188 290.503906 464.417969 291.0625 464.121094 C 291.617188 463.824219 292.1875 463.554688 292.769531 463.3125 C 293.355469 463.070312 293.949219 462.859375 294.550781 462.675781 C 295.15625 462.492188 295.765625 462.339844 296.386719 462.21875 C 297.003906 462.09375 297.628906 462 298.253906 461.941406 C 298.882812 461.878906 299.511719 461.847656 300.144531 461.847656 Z M 300.144531 461.847656 " fill-opacity="1" fill-rule="nonzero"/></g><g clip-path="url(#61e642b242)"><path fill="#2cd117" d="M 550.617188 95.769531 L 194.175781 95.769531 L 194.175781 326.976562 L 579.519531 326.976562 L 579.519531 124.671875 C 579.519531 123.722656 579.472656 122.78125 579.378906 121.835938 C 579.289062 120.894531 579.148438 119.960938 578.964844 119.03125 C 578.777344 118.105469 578.550781 117.1875 578.273438 116.28125 C 578 115.375 577.679688 114.484375 577.320312 113.609375 C 576.957031 112.734375 576.554688 111.882812 576.105469 111.046875 C 575.660156 110.210938 575.175781 109.402344 574.648438 108.613281 C 574.121094 107.828125 573.558594 107.066406 572.960938 106.335938 C 572.359375 105.605469 571.722656 104.902344 571.054688 104.234375 C 570.386719 103.566406 569.683594 102.929688 568.953125 102.328125 C 568.222656 101.730469 567.460938 101.164062 566.675781 100.640625 C 565.886719 100.113281 565.078125 99.628906 564.242188 99.183594 C 563.40625 98.734375 562.550781 98.332031 561.679688 97.96875 C 560.804688 97.605469 559.914062 97.289062 559.007812 97.015625 C 558.101562 96.738281 557.183594 96.507812 556.257812 96.324219 C 555.328125 96.140625 554.394531 96 553.449219 95.910156 C 552.507812 95.816406 551.566406 95.769531 550.617188 95.769531 Z M 531.351562 298.074219 L 261.609375 298.074219 L 261.609375 124.671875 L 531.351562 124.671875 Z M 531.351562 298.074219 " fill-opacity="1" fill-rule="nonzero"/></g><g clip-path="url(#f40eb40ddf)"><path fill="#2cd117" d="M 194.175781 423.3125 L 579.519531 423.3125 L 579.519531 346.242188 L 194.175781 346.242188 Z M 213.441406 375.144531 L 280.878906 375.144531 L 280.878906 355.878906 L 300.144531 355.878906 L 300.144531 375.144531 L 377.214844 375.144531 L 377.214844 355.878906 L 396.480469 355.878906 L 396.480469 375.144531 L 473.550781 375.144531 L 473.550781 355.878906 L 492.816406 355.878906 L 492.816406 375.144531 L 560.253906 375.144531 L 560.253906 394.410156 L 492.816406 394.410156 L 492.816406 413.679688 L 473.550781 413.679688 L 473.550781 394.410156 L 396.480469 394.410156 L 396.480469 413.679688 L 377.214844 413.679688 L 377.214844 394.410156 L 300.144531 394.410156 L 300.144531 413.679688 L 280.878906 413.679688 L 280.878906 394.410156 L 213.441406 394.410156 Z M 213.441406 375.144531 " fill-opacity="1" fill-rule="nonzero"/></g><path fill="#2cd117" d="M 357.945312 172.839844 L 357.945312 259.539062 L 435.015625 211.371094 Z M 357.945312 172.839844 " fill-opacity="1" fill-rule="nonzero"/></svg>