<svg xmlns="http://www.w3.org/2000/svg" xmlns:xlink="http://www.w3.org/1999/xlink" width="800" zoomAndPan="magnify" viewBox="0 0 600 749.999995" height="1000" preserveAspectRatio="xMidYMid meet" version="1.0"><defs><clipPath id="b8b4cfb862"><path d="M 113 31.898438 L 487 31.898438 L 487 115 L 113 115 Z M 113 31.898438 " clip-rule="nonzero"/></clipPath><clipPath id="b1136c88f8"><path d="M 113 635 L 487 635 L 487 718.148438 L 113 718.148438 Z M 113 635 " clip-rule="nonzero"/></clipPath></defs><path fill="#2cd117" d="M 113.195312 635.550781 L 113.195312 114.488281 L 486.503906 114.488281 L 486.503906 635.550781 Z M 455.855469 635.550781 L 455.855469 114.488281 L 143.84375 114.488281 L 143.84375 635.550781 Z M 455.855469 635.550781 " fill-opacity="1" fill-rule="nonzero"/><g clip-path="url(#b8b4cfb862)"><path fill="#2cd117" d="M 161.796875 31.894531 L 437.902344 31.894531 C 464.632812 31.894531 486.503906 53.753906 486.503906 80.476562 L 486.503906 114.488281 L 113.195312 114.488281 L 113.195312 80.476562 C 113.195312 53.753906 135.066406 31.894531 161.796875 31.894531 Z M 236.085938 79.316406 L 363.613281 79.316406 L 363.613281 67.0625 L 236.085938 67.0625 Z M 236.085938 79.316406 " fill-opacity="1" fill-rule="evenodd"/></g><g clip-path="url(#b1136c88f8)"><path fill="#2cd117" d="M 161.796875 718.144531 L 437.902344 718.144531 C 464.632812 718.144531 486.503906 696.28125 486.503906 669.5625 L 486.503906 635.550781 L 113.195312 635.550781 L 113.195312 669.5625 C 113.195312 696.28125 135.066406 718.144531 161.796875 718.144531 Z M 272.886719 682.976562 L 326.8125 682.976562 L 326.8125 670.722656 L 272.886719 670.722656 Z M 272.886719 682.976562 " fill-opacity="1" fill-rule="evenodd"/></g><path fill="#2cd117" d="M 313.382812 285.378906 C 328.320312 287.613281 342.058594 293.492188 353.679688 302.074219 L 371.152344 284.609375 L 390.292969 303.746094 L 372.816406 321.210938 C 381.402344 332.824219 387.28125 346.5625 389.515625 361.488281 L 414.21875 361.492188 L 414.21875 388.550781 L 389.519531 388.546875 C 387.285156 403.476562 381.40625 417.214844 372.820312 428.828125 L 390.289062 446.296875 L 371.148438 465.429688 L 353.679688 447.960938 C 342.0625 456.546875 328.316406 462.421875 313.382812 464.65625 L 313.378906 489.347656 L 286.3125 489.347656 L 286.316406 464.660156 C 271.382812 462.421875 257.640625 456.546875 246.019531 447.960938 L 228.546875 465.425781 L 209.40625 446.292969 L 226.878906 428.832031 C 218.292969 417.214844 212.414062 403.476562 210.179688 388.546875 L 185.480469 388.542969 L 185.480469 361.484375 L 210.179688 361.488281 C 212.414062 346.558594 218.292969 332.820312 226.878906 321.207031 L 209.410156 303.738281 L 228.550781 284.609375 L 246.019531 302.074219 C 257.636719 293.488281 271.382812 287.613281 286.316406 285.378906 L 286.320312 260.6875 L 313.386719 260.691406 Z M 299.851562 325.589844 C 327.160156 325.589844 349.296875 347.71875 349.296875 375.019531 C 349.296875 402.316406 327.160156 424.449219 299.851562 424.449219 C 272.539062 424.449219 250.402344 402.316406 250.402344 375.019531 C 250.402344 347.71875 272.539062 325.589844 299.851562 325.589844 Z M 299.851562 325.589844 " fill-opacity="1" fill-rule="evenodd"/></svg>